<?xml version="1.0" standalone="no"?>
<!DOCTYPE svg PUBLIC "-//W3C//DTD SVG 20010904//EN"
 "http://www.w3.org/TR/2001/REC-SVG-20010904/DTD/svg10.dtd">
<svg version="1.0" xmlns="http://www.w3.org/2000/svg"
 width="254.000000pt" height="228.000000pt" viewBox="0 0 254.000000 228.000000"
 preserveAspectRatio="xMidYMid meet">

<g transform="translate(0.000000,228.000000) scale(0.100000,-0.100000)"
fill="#000000" stroke="none">
<path d="M284 1309 c-33 -17 -54 -62 -54 -119 0 -59 21 -103 57 -119 17 -8
307 -11 954 -11 1010 0 971 -2 997 55 16 36 15 120 -3 154 -8 16 -28 34 -45
41 -27 11 -41 10 -108 -11 -104 -32 -220 -32 -319 -1 l-72 22 -63 -22 c-89
-31 -237 -31 -325 1 l-63 23 -62 -23 c-89 -32 -237 -32 -327 -1 l-63 23 -67
-23 c-90 -31 -239 -31 -325 1 -65 23 -81 25 -112 10z"/>
<path d="M294 940 c-32 -13 -64 -59 -64 -92 0 -38 27 -83 57 -97 17 -8 307
-11 954 -11 1010 0 971 -2 997 55 20 44 14 82 -17 117 l-29 33 -155 3 -155 3
-84 -54 -83 -55 -370 54 -370 53 -330 0 c-181 0 -340 -4 -351 -9z"/>
<path d="M340 655 l0 -75 900 0 900 0 0 75 0 75 -900 0 -900 0 0 -75z"/>
</g>
</svg>
